<svg xmlns="http://www.w3.org/2000/svg" viewBox="0 0 48 48">
  <path fill="#EA4335" d="M23.992 5.531l-.405-.313c-8.036 1.18-14.59 7.25-14.59 14.858 0 8.262 6.711 14.97 14.96 14.97 8.2 0 14.897-6.6 14.897-14.97 0-5.34-2.68-9.98-6.733-12.734v4.354h7.24v6.065h-11.686z"/>
  <path fill="#4285F4" d="M7.716 24.83c-.18.592-.281 1.222-.281 1.868s.102 1.275.281 1.867v4.355h7.24v-7.189h-7.24z"/>
  <path fill="#FBBC05" d="M23.992 45.67c3.273 0 6.203-1.112 8.534-2.994l-4.105-3.344c-1.043.715-2.41 1.138-4.43 1.138-3.41 0-6.29-2.24-7.31-5.336h-4.37v3.35c2.32 4.533 6.872 7.476 12.67 7.476z"/>
  <path fill="#34A853" d="M16.684 29.003c-.09-.27-.143-.56-.143-.853s.052-.584.143-.853v-4.356h-7.24v7.19l4.663 3.785c1.346-.952 3.07-1.51 5.377-1.51 2.31 0 4.037.558 5.382 1.51l4.663-3.785v-7.19h-11.686z"/>
  <path fill="none" d="M0 0h48v48H0z"/>
</svg>
